<svg xmlns="http://www.w3.org/2000/svg" width="152" height="15" viewBox="0 0 152 15"><defs><style>.a{fill:#269eed;}.b{fill:#1e1d1e;}</style></defs><path class="a" d="M14.666,11.819a4.663,4.663,0,0,1-1.419,1.649,7.327,7.327,0,0,1-2.36,1.115,11.935,11.935,0,0,1-3.307.41,12.03,12.03,0,0,1-3.316-.41,7.335,7.335,0,0,1-2.37-1.115A4.655,4.655,0,0,1,.475,11.819,4.4,4.4,0,0,1,0,9.807V.359H3.432V8.428a5.473,5.473,0,0,0,.162,1.354A2.494,2.494,0,0,0,4.207,10.9a3.089,3.089,0,0,0,1.262.757,6.612,6.612,0,0,0,2.11.28,6.5,6.5,0,0,0,2.1-.28,3.077,3.077,0,0,0,1.257-.757,2.455,2.455,0,0,0,.607-1.115A5.625,5.625,0,0,0,11.7,8.428V.359h3.441V9.807A4.412,4.412,0,0,1,14.666,11.819Z" transform="translate(0 0.007)"/><path class="a" d="M32.689,3.263a3.856,3.856,0,0,0-.9-1.541A4.111,4.111,0,0,0,30.2.716,7.064,7.064,0,0,0,27.8.359H20.177a1.526,1.526,0,0,0-1.532,1.519h0A1.526,1.526,0,0,0,20.177,3.4h6.881a5.022,5.022,0,0,1,1.141.108,1.876,1.876,0,0,1,.751.338,1.241,1.241,0,0,1,.412.585,2.593,2.593,0,0,1,.125.855,2.454,2.454,0,0,1-.125.84,1.186,1.186,0,0,1-.412.556,1.83,1.83,0,0,1-.751.3,6.146,6.146,0,0,1-1.141.089H18.645v7.539h3.442v-4.5H27.8A6.956,6.956,0,0,0,30.2,9.743a4.163,4.163,0,0,0,1.6-1.011,3.851,3.851,0,0,0,.9-1.545,6.632,6.632,0,0,0,.279-1.966A6.57,6.57,0,0,0,32.689,3.263Z" transform="translate(0.389 0.007)"/><path class="b" d="M44.056,14.6H40.049L33.6.359h3.841L42.08,11.08,46.709.359H50.55Z" transform="translate(0.416 0.007)"/><path class="b" d="M80.983,14.2a13.629,13.629,0,0,1-1.4.43,11.966,11.966,0,0,1-1.526.275A15.032,15.032,0,0,1,76.335,15a13.054,13.054,0,0,1-3.585-.467,8,8,0,0,1-2.82-1.406,6.436,6.436,0,0,1-1.842-2.344A7.664,7.664,0,0,1,67.43,7.5a7.664,7.664,0,0,1,.658-3.283A6.425,6.425,0,0,1,69.93,1.873,8,8,0,0,1,72.75.468,13.027,13.027,0,0,1,76.336,0a15.045,15.045,0,0,1,1.721.093,11.791,11.791,0,0,1,1.526.275,13.55,13.55,0,0,1,1.4.43q.677.249,1.346.56V4.823Q81.8,4.5,81.217,4.185a9.515,9.515,0,0,0-1.289-.571,9.908,9.908,0,0,0-3.451-.576,8.291,8.291,0,0,0-2.7.374,4.58,4.58,0,0,0-1.711,1,3.456,3.456,0,0,0-.9,1.426A5.4,5.4,0,0,0,70.911,7.5a5.771,5.771,0,0,0,.111,1.126,3.858,3.858,0,0,0,.372,1.047,3.729,3.729,0,0,0,.677.907,3.808,3.808,0,0,0,1.039.716,6.184,6.184,0,0,0,1.452.472,9.537,9.537,0,0,0,1.915.171,10.9,10.9,0,0,0,1.9-.151,9.812,9.812,0,0,0,1.549-.4,9.032,9.032,0,0,0,1.289-.565q.585-.316,1.113-.648v3.464Q81.661,13.952,80.983,14.2Z" transform="translate(0.844 0)"/><path class="b" d="M92.345,3.458V14.6H88.9V3.458H85.059A1.556,1.556,0,0,1,83.5,1.909h0A1.556,1.556,0,0,1,85.059.359H96.2a1.556,1.556,0,0,1,1.563,1.55h0A1.556,1.556,0,0,1,96.2,3.458Z" transform="translate(1.049 0.007)"/><path class="b" d="M116.208,7.5a8.153,8.153,0,0,1-.6,3.241,6.227,6.227,0,0,1-1.725,2.349,7.561,7.561,0,0,1-2.723,1.427,12.46,12.46,0,0,1-3.595.482,12.555,12.555,0,0,1-3.6-.482,7.646,7.646,0,0,1-2.741-1.427,6.27,6.27,0,0,1-1.744-2.349A8.05,8.05,0,0,1,98.861,7.5a8.05,8.05,0,0,1,.613-3.241,6.27,6.27,0,0,1,1.744-2.349A7.663,7.663,0,0,1,103.958.482a13.678,13.678,0,0,1,7.2,0,7.56,7.56,0,0,1,2.723,1.427A6.235,6.235,0,0,1,115.6,4.258,8.153,8.153,0,0,1,116.208,7.5Zm-3.479,0a5.767,5.767,0,0,0-.227-1.592,3.531,3.531,0,0,0-.808-1.427,4.191,4.191,0,0,0-1.581-1.027,7.051,7.051,0,0,0-2.551-.394,8.238,8.238,0,0,0-1.827.181,5.172,5.172,0,0,0-1.364.5,3.714,3.714,0,0,0-1.586,1.676,4.132,4.132,0,0,0-.33,1.027,5.825,5.825,0,0,0-.1,1.053,6.06,6.06,0,0,0,.1,1.068,4.129,4.129,0,0,0,.33,1.032,3.629,3.629,0,0,0,.622.917,3.736,3.736,0,0,0,.965.742,5.3,5.3,0,0,0,1.364.5,8.238,8.238,0,0,0,1.827.181,7.051,7.051,0,0,0,2.551-.394,4.16,4.16,0,0,0,1.581-1.027,3.536,3.536,0,0,0,.808-1.427A5.779,5.779,0,0,0,112.729,7.5Z" transform="translate(1.223 0)"/><path class="b" d="M129.833,8.975a5.711,5.711,0,0,0,1.075-.549,3.675,3.675,0,0,0,1.509-1.971,4.979,4.979,0,0,0,.226-1.575,6,6,0,0,0-.273-1.861,3.453,3.453,0,0,0-.882-1.426A4.057,4.057,0,0,0,129.911.68a7.553,7.553,0,0,0-2.36-.321h-7.127a1.493,1.493,0,0,0-1.5,1.487h0a1.493,1.493,0,0,0,1.5,1.487h6.654a5.247,5.247,0,0,1,1.007.083,1.629,1.629,0,0,1,.644.264.983.983,0,0,1,.339.473,2.247,2.247,0,0,1,.1.7,2.247,2.247,0,0,1-.1.7.976.976,0,0,1-.339.473,1.629,1.629,0,0,1-.644.264,5.266,5.266,0,0,1-1.007.081h-8.154V14.6h3.442V9.359h3.756l3.859,5.247h4.026Z" transform="translate(1.351 0.007)"/><path class="b" d="M144.145,8.789v5.817h-3.432V8.789L134.534.359h3.859l4.045,5.734L146.463.359h3.86Z" transform="translate(1.677 0.007)"/><path class="b" d="M63.619,3.423H53.779A1.532,1.532,0,0,1,52.247,1.89h0A1.532,1.532,0,0,1,53.779.358h9.839A1.532,1.532,0,0,1,65.151,1.89h0A1.532,1.532,0,0,1,63.619,3.423Z" transform="translate(0.66 0.007)"/><path class="b" d="M61.209,8.746H53.78a1.532,1.532,0,0,1-1.532-1.532h0A1.532,1.532,0,0,1,53.78,5.681h7.429a1.532,1.532,0,0,1,1.532,1.532h0A1.534,1.534,0,0,1,61.209,8.746Z" transform="translate(0.668 0.06)"/><path class="b" d="M63.748,14.5H53.779a1.532,1.532,0,0,1-1.532-1.532h0a1.532,1.532,0,0,1,1.532-1.532h9.969a1.532,1.532,0,0,1,1.532,1.532h0A1.532,1.532,0,0,1,63.748,14.5Z" transform="translate(0.66 0.116)"/></svg>