<svg xmlns="http://www.w3.org/2000/svg" width="23" height="21" viewBox="0 0 23 21"><defs><style>.a{fill:#fff;}</style></defs><g transform="translate(-169 -678)"><path class="a" d="M17.69,15.169l8.7,8.6a1.65,1.65,0,0,0,2.321,0,1.619,1.619,0,0,0,0-2.3l-9.853-9.748a1.654,1.654,0,0,0-2.266-.047L6.667,21.465a1.621,1.621,0,0,0,0,2.3,1.65,1.65,0,0,0,2.321,0Z" transform="translate(198.188 710.251) rotate(180)"/><path class="a" d="M17.69,15.169l8.7,8.6a1.65,1.65,0,0,0,2.321,0,1.619,1.619,0,0,0,0-2.3l-9.853-9.748a1.654,1.654,0,0,0-2.266-.047L6.667,21.465a1.621,1.621,0,0,0,0,2.3,1.65,1.65,0,0,0,2.321,0Z" transform="translate(198.188 702.251) rotate(180)"/></g></svg>