<svg xmlns="http://www.w3.org/2000/svg" xmlns:xlink="http://www.w3.org/1999/xlink" width="1367" height="768" viewBox="0 0 1367 768"><defs><style>.a{fill:url(#a);}.b,.c,.e,.k{opacity:0.3;}.b{fill:url(#b);}.c{fill:url(#c);}.d{opacity:0.5;}.f,.g,.k{fill:none;stroke:#fff;}.f,.g{stroke-linejoin:round;}.f{stroke-width:1.26px;}.g{stroke-width:0.82px;}.h,.i{opacity:0.4;}.i{fill:#fff;}.j{opacity:0.6;}.k{stroke-linecap:round;stroke-miterlimit:10;stroke-width:4.91px;}.l{fill:url(#d);}</style><linearGradient id="a" x1="0.502" y1="1.122" x2="0.498" y2="0.096" gradientUnits="objectBoundingBox"><stop offset="0.01" stop-color="#7d58ba"/><stop offset="0.43" stop-color="#7550a7"/><stop offset="1" stop-color="#383378"/></linearGradient><linearGradient id="b" y1="0.5" x2="1" y2="0.5" gradientUnits="objectBoundingBox"><stop offset="0.01" stop-color="#774faa"/><stop offset="1" stop-color="#774faa"/></linearGradient><linearGradient id="c" x1="0" y1="0.5" x2="1" y2="0.5" xlink:href="#b"/><linearGradient id="d" x1="-593.493" y1="1.001" x2="-593.493" gradientUnits="objectBoundingBox"><stop offset="0.01" stop-color="#7d58ba"/><stop offset="1" stop-color="#8f73e5"/></linearGradient></defs><g transform="translate(92.55)"><g transform="translate(-92.06)"><rect class="a" width="1367" height="768" transform="translate(-0.49)"/><path class="b" d="M968.835,265.64a11.261,11.261,0,0,1-4.4.57c-18,0-19.638,6.41-32.716,17.34-26.177,21.87-72.235,5.56-96.164,29.83-13.159,13.3-14.374,34.3-25.367,49.36a48.8,48.8,0,0,1-17.37,14.71c-20.478,10.57-48.487,9-72.477,4.7-31.876-5.75-68.3-12.79-93.917,6.85-9.11,7-15.315,16.21-20.245,26.43-11.651,24-16.449,53.44-35.986,72-18.676,17.57-46.473,21.29-72.275,22.48-32.7,1.51-66.546.24-96.336-13.17-42.272-19-72.012-60.54-116.106-75-31.107-10.19-65.564-5.52-96.893-15-13.159-4-25.823-10.43-39.549-10.88-19.567-.63-38.2,11.09-57.7,9.14-32.554-3.25-50.086-41.24-77.761-57V203.81c17.968-3.46,37.19-.5,55.421,11.58,6.924,4.59,12.835,10.68,20.245,14.4,25.306,12.69,60.594-5.23,82.509,12.61,20.63,16.78,24.881,38.52,55.289,43.34,16.753,2.66,33.951.88,50.744,3.21,19.881,2.75,38.86,11.2,58.933,11.7,11.894.29,23.8-2.23,35.652-1.17,15.741,1.42,30.813,9.11,46.564,7.79,9.991-.84,19.233-5.25,28.272-9.6,19.375-9.33,40.49-16.76,59.318-26.44,16.793-8.64,29.072-22.64,48.295-27.15,51.089-11.94,100.6,46.13,150.826,31,30.874-9.31,48.851-43.53,79.725-52.82,41.948-12.63,82.145,25.78,125.844,29.31,14.06,1.13,53.4-13.31,60.847,5.41C973.33,260.15,972.034,264.33,968.835,265.64Z" transform="translate(-14.06 -7.859)"/><path class="c" d="M1379.59,292.49V460.06c-10-1.93-20.1-4.19-30.15-3.06-13.49,1.52-25.46,8.94-38.09,13.92-30.11,11.88-64.41,9.91-94.24,22.5-42.28,17.84-68.3,61.54-108.43,83.81-28.27,15.69-61.51,19.59-93.83,20.64-25.5.82-53.17-.68-72.92-16.83-29.52-24.15-31.28-72.79-63.17-93.7-26.79-17.57-62.09-7.71-93,.51s-69.3,12.08-90-12.35c-12-14.16-14.91-35-28.87-47.23-17.6-15.43-44.09-10.72-67.85-12.85-10.62-1-20.69-3.29-29.19-9.39-13.75-9.88-15.86-16.16-33.59-14.73a11.351,11.351,0,0,1-4.39-.23c-3.24-1.06-4.86-5.13-3.86-8.4,5.85-19.24,45.73-7.9,59.49-10.13,42.76-6.92,79.31-48.35,121.62-39,28.28,6.23,47.7,33.77,74.35,43.94a58.475,58.475,0,0,0,8.33,2.51c50.64,11.18,94.82-50.57,146.07-42.65,19.29,3,32.48,16,49.71,23.29,19.31,8.19,40.68,13.95,60.5,21.74,9.21,3.63,18.69,7.31,28.6,7.37,15.61.09,29.85-8.76,45.24-11.4,11.59-2,23.51-.39,35.21-1.61,19.72-2.07,37.75-12,57.11-16.26,16.35-3.63,33.43-3.2,49.71-7.15,29.57-7.18,32-29.18,51-47.52C1331.07,290.18,1357.43,296.73,1379.59,292.49Z" transform="translate(-20.72 -11.298)"/><g class="d" transform="translate(180.476 79.026)"><g class="e"><path class="f" d="M668.74,118.99l-17.65,10.07-.1,20.32,17.54,10.25,17.65-10.07.1-20.32Z" transform="translate(-650.99 -118.99)"/><line class="f" x1="17.55" y1="10.25" transform="translate(0.1 10.07)"/><line class="f" x1="17.65" y2="10.07" transform="translate(17.65 10.25)"/><line class="f" x1="0.11" y2="20.32" transform="translate(17.54 20.32)"/></g></g><g class="e" transform="translate(1207.34 395.588)"><path class="g" d="M1234.14,406.06l-6.08,11.73,7.12,11.13,13.2-.6,6.08-11.73-7.12-11.13Z" transform="translate(-1228.06 -405.46)"/><line class="g" x1="13.2" y2="0.6" transform="translate(0 11.73)"/><line class="g" x1="6.08" y2="11.73" transform="translate(13.2)"/><line class="g" x2="7.12" y2="11.13" transform="translate(13.2 11.73)"/></g><g class="h" transform="translate(131.339 452.088)"><path class="i" d="M133.79,465.5l.57,15.21a2.11,2.11,0,0,0,3.23,1.71l12.89-8.1a2.11,2.11,0,0,0-.14-3.65l-13.45-7.12a2.12,2.12,0,0,0-3.1,1.95Z" transform="translate(-133.789 -463.309)"/></g><g class="j" transform="translate(1048.442 63.895)"><path class="i" d="M1074.61,64.37l-9,8.66a1.73,1.73,0,0,0,.72,2.92l12,3.47a1.73,1.73,0,0,0,2.16-2.08l-3-12.14a1.74,1.74,0,0,0-2.88-.83Z" transform="translate(-1065.07 -63.895)"/></g><path class="i" d="M787,596.54l-2.13,11.23a1.58,1.58,0,0,0,2.08,1.79l10.79-3.77a1.59,1.59,0,0,0,.51-2.7l-8.65-7.46a1.59,1.59,0,0,0-2.6.91Z" transform="translate(-12.878 -14.323)"/><path class="k" d="M2.45,374.07c8.38,0,8.38,10.9,16.76,10.9s8.37-10.9,16.75-10.9S44.34,385,52.72,385s8.37-10.9,16.75-10.9S77.85,385,86.23,385s8.38-10.9,16.76-10.9,8.38,10.9,16.75,10.9" transform="translate(0.55 -8.96)"/><path class="l" d="M1320.88,454.57l-3.15-8.51a.59.59,0,0,1,.55-.79h6.3a.59.59,0,0,1,.55.79l-3.15,8.51a.59.59,0,0,1-1.1,0Z" transform="translate(-20.72 -10.649)"/></g></g></svg>